<?xml version="1.0" encoding="UTF-8"?>
<svg version="1.1" xmlns="http://www.w3.org/2000/svg" viewBox="100 275 1760 285">
<path d="M0 0 C28.38 0 56.76 0 86 0 C86 30.03 86 60.06 86 91 C94.91 91 103.82 91 113 91 C113 60.97 113 30.94 113 0 C141.05 0 169.1 0 198 0 C198 67.65 198 135.3 198 205 C169.62 205 141.24 205 112 205 C112 173.65 112 142.3 112 110 C103.42 110 94.84 110 86 110 C86 141.35 86 172.7 86 205 C57.62 205 29.24 205 0 205 C0 137.35 0 69.7 0 0 Z " fill="#E12C1F" transform="translate(122,286)"/>
<path d="M0 0 C26.07 0 52.14 0 79 0 C87 16 87 16 90 23 C90.6659333 24.47539409 91.33877012 25.94770944 92.02124023 27.41552734 C92.38849716 28.20680023 92.75575409 28.99807312 93.13414001 29.81332397 C93.52170975 30.64578644 93.90927948 31.4782489 94.30859375 32.3359375 C94.71658707 33.21472565 95.12458038 34.09351379 95.54493713 34.99893188 C96.84149026 37.79140538 98.13936959 40.58325942 99.4375 43.375 C100.73195918 46.15964582 102.02609931 48.94443804 103.3193512 51.72964478 C104.12114496 53.45636193 104.9236203 55.18276283 105.72691345 56.90878296 C107.87288757 61.52956605 109.97420376 66.16712693 112.0353241 70.82635498 C113.57217308 74.28924248 115.14283698 77.73655584 116.71484375 81.18359375 C117.05246231 81.92400406 117.39008087 82.66441437 117.7379303 83.42726135 C118.44602855 84.97938174 119.15440013 86.53137746 119.86303711 88.08325195 C120.57836091 89.65059288 121.29288155 91.21830062 122.0065918 92.78637695 C123.05339606 95.08626537 124.10261548 97.3850387 125.15234375 99.68359375 C125.46396957 100.36932968 125.7755954 101.05506561 126.09666443 101.76158142 C126.55722984 102.7679641 126.55722984 102.7679641 127.02709961 103.79467773 C127.33540207 104.48754883 127.64370453 105.18041992 127.96134949 105.89428711 C128.95698199 108.03234523 128.95698199 108.03234523 130.3351593 109.9777832 C135.98651974 118.94780233 134.62075931 129.56197814 134.48828125 139.7578125 C134.47894379 141.87343507 134.47183209 143.98906852 134.46684265 146.10470581 C134.4478464 151.64512524 134.39880931 157.18487851 134.34332275 162.72503662 C134.28292579 169.38723995 134.26017895 176.04966731 134.23105621 182.71206665 C134.18273992 192.80850628 134.08687248 202.90348721 134 213 C108.92 213 83.84 213 58 213 C58.0309375 203.533125 58.0309375 203.533125 58.0625 193.875 C58.0577646 189.84624153 58.05066248 185.81775894 58.03515625 181.7890625 C58.01083354 175.41216269 57.9946736 169.03606119 58.03076172 162.65917969 C58.05934667 157.51043708 58.04829054 152.36308975 58.01119995 147.2144165 C58.00382618 145.26271839 58.01008267 143.31091353 58.03103638 141.35931396 C58.16483051 127.76577135 55.97380215 118.65384803 49 107 C48.24397203 105.49474966 47.50528537 103.98035046 46.80102539 102.45019531 C46.37273438 101.54311325 46.37273438 101.54311325 45.93579102 100.6177063 C45.65920654 100.02714447 45.38262207 99.43658264 45.09765625 98.828125 C44.77780762 98.14950409 44.45795898 97.47088318 44.12841797 96.771698 C43.10466603 94.59863091 42.08352559 92.42434921 41.0625 90.25 C40.32952881 88.69245939 39.59637015 87.13500699 38.86303711 85.57763672 C37.72475419 83.16018765 36.58662549 80.74266722 35.44923401 78.32479858 C32.79768701 72.68899735 30.13600892 67.05806788 27.46875 61.4296875 C13.97396388 32.94243826 13.97396388 32.94243826 8.12915039 19.86767578 C5.88973895 14.87282591 3.49453159 9.99547844 0.94433594 5.15087891 C0 3 0 3 0 0 Z " fill="#E02B1E" transform="translate(895,341)"/>
<path d="M0 0 C0 18.48 0 36.96 0 56 C9.57 56 19.14 56 29 56 C29 62.93 29 69.86 29 77 C19.76 77 10.52 77 1 77 C1 119.9 1 162.8 1 207 C-24.41 207 -49.82 207 -76 207 C-76 152.55 -76 98.1 -76 42 C-63 36 -63 36 -58.78515625 34.12109375 C-42.3304146 26.74094494 -26.98038238 17.23804438 -12.09375 7.1015625 C-1.6394052 0 -1.6394052 0 0 0 Z " fill="#E12B1F" transform="translate(1632,284)"/>
<path d="M0 0 C23.43 0 46.86 0 71 0 C71 67.98 71 135.96 71 206 C47.57 206 24.14 206 0 206 C0 138.02 0 70.04 0 0 Z " fill="#E12B1E" transform="translate(531,286)"/>
<path d="M0 0 C23.1 0 46.2 0 70 0 C70 67.32 70 134.64 70 204 C46.9 204 23.8 204 0 204 C0 136.68 0 69.36 0 0 Z " fill="#E0291C" transform="translate(718,287)"/>
<path d="M0 0 C0.87084229 -0.01409912 1.74168457 -0.02819824 2.63891602 -0.04272461 C15.27838258 0.05148408 26.91207112 4.90933432 36.1875 13.5 C46.23224231 24.1927902 48.70138801 36.61943739 48.60205078 50.76977539 C48.60234283 51.8732431 48.60263489 52.97671082 48.60293579 54.11361694 C48.6015509 57.73337883 48.5860293 61.35293066 48.5703125 64.97265625 C48.56657938 67.4932799 48.56373382 70.01390501 48.56173706 72.53453064 C48.55490079 78.47352217 48.53916418 84.41244717 48.51903808 90.35140461 C48.49046305 98.97242631 48.48006822 107.59347373 48.46742249 116.21453094 C48.44807007 128.26808222 48.40973093 140.32143905 48.375 152.375 C23.625 152.375 -1.125 152.375 -26.625 152.375 C-26.66238281 143.90070313 -26.69976563 135.42640625 -26.73828125 126.6953125 C-26.77242088 120.63342104 -26.8084141 114.57156273 -26.84707737 108.50970078 C-26.89687388 100.66371129 -26.94234471 92.81777621 -26.97143555 84.97167969 C-26.99448807 78.75796191 -27.02796625 72.54440033 -27.07370156 66.33080661 C-27.09753675 63.044042 -27.11477304 59.75746259 -27.12261391 56.47061539 C-27.13227659 52.79153908 -27.16036354 49.11302021 -27.19262695 45.43408203 C-27.19119186 44.35729691 -27.18975677 43.28051178 -27.1882782 42.1710968 C-27.29786936 33.29909787 -28.83506737 25.42208389 -33.8125 17.9375 C-36.625 13.67427007 -36.625 13.67427007 -36.625 10.375 C-24.43497399 3.79310726 -14.02793346 0.16575676 0 0 Z " fill="#E02A1E" transform="translate(1302.625,337.625)"/>
<path d="M0 0 C24.42 0 48.84 0 74 0 C74 49.17 74 98.34 74 149 C49.58 149 25.16 149 0 149 C0 99.83 0 50.66 0 0 Z " fill="#E12A1D" transform="translate(1093,341)"/>
<path d="M0 0 C54.08837209 0 54.08837209 0 67 12 C74.93232748 21.50960496 75.3090347 32.98095688 75.22705078 44.8972168 C75.22734283 46.03023727 75.22763489 47.16325775 75.22793579 48.33061218 C75.22655402 52.03689513 75.21104739 55.74297138 75.1953125 59.44921875 C75.19157827 62.03424469 75.18873324 64.61927206 75.18673706 67.20429993 C75.1799081 73.28843526 75.16418139 79.37248661 75.14403808 85.45659047 C75.11937906 93.07195771 75.10851785 100.6873371 75.09765625 108.30273438 C75.07824754 121.86854622 75.03817171 135.43419919 75 149 C50.25 149 25.5 149 0 149 C0 99.83 0 50.66 0 0 Z " fill="#E12A1E" transform="translate(1184,341)"/>
<path d="M0 0 C26.98130841 0 26.98130841 0 39 6 C40.02480469 6.50660156 41.04960938 7.01320313 42.10546875 7.53515625 C61.65862914 17.59827162 75.43781435 32.59638104 82.2800293 53.5090332 C88.87382546 74.73013658 87.04311964 95.07317532 77 115 C69.0789582 128.95125428 58.59056726 137.99684854 45 146 C44.31550781 146.43183594 43.63101563 146.86367188 42.92578125 147.30859375 C30.00347605 154.77158799 14.27697004 154 0 154 C0 103.18 0 52.36 0 0 Z " fill="#E12B1F" transform="translate(616,338)"/>
<path d="M0 0 C25.83709218 0 44.52002361 5.9364851 63.1640625 24.109375 C75.31551786 36.9645826 82.67709131 53.38153867 84 71 C84.09023438 72.14082031 84.18046875 73.28164063 84.2734375 74.45703125 C84.86040866 93.84965526 78.60921507 112.24909235 66 127 C65.07380859 128.14275391 65.07380859 128.14275391 64.12890625 129.30859375 C53.17565124 142.37756804 36.60053941 150.67989212 20 154 C13.4 154 6.8 154 0 154 C0 103.18 0 52.36 0 0 Z " fill="#E02A1D" transform="translate(804,338)"/>
<path d="M0 0 C0 52.14 0 104.28 0 158 C-22.91659994 158 -42.59071369 149.89291016 -59 134 C-59.61359375 133.47148437 -60.2271875 132.94296875 -60.859375 132.3984375 C-72.53414096 121.9554129 -79.99358315 104.17642582 -81.17700195 88.68261719 C-81.7970083 64.544362 -77.59187421 45.368442 -61 27 C-60.33613281 26.24332031 -59.67226563 25.48664063 -58.98828125 24.70703125 C-43.693207 8.28108275 -22.15182599 0 0 0 Z " fill="#E02B1E" transform="translate(418,336)"/>
<path d="M0 0 C21.42402628 1.53028759 39.06563994 7.42018368 55 22 C55.80308594 22.721875 56.60617187 23.44375 57.43359375 24.1875 C65.31650574 31.63173392 70.37265359 40.20471941 74.8125 50 C75.1027002 50.627854 75.39290039 51.25570801 75.69189453 51.90258789 C82.9711859 68.70078741 82.2854469 91.01631457 76 108 C72.22040763 116.61172945 67.24237663 123.99492697 61 131 C60.33484375 131.75925781 59.6696875 132.51851562 58.984375 133.30078125 C47.42730431 145.69252927 31.53629001 153.8581049 15 157 C10.05 157 5.1 157 0 157 C0 105.19 0 53.38 0 0 Z " fill="#E02A1D" transform="translate(434,336)"/>
<path d="M0 0 C24.36296305 1.87407408 46.61187873 10.14607345 63 29 C77.71121137 48.05482335 81.5954751 67.27922217 80 91 C79.27070092 96.18755467 77.75811187 101.07362404 76 106 C75.71125 106.90621094 75.4225 107.81242187 75.125 108.74609375 C68.95155052 126.41208089 53.76776696 140.03195782 37.41015625 148.09228516 C24.47101374 154.21399803 14.91970677 156 0 156 C0 104.52 0 53.04 0 0 Z " fill="#E02A1D" transform="translate(1757,337)"/>
<path d="M0 0 C0 51.48 0 102.96 0 156 C-20.88051075 156 -38.11589512 150.75530732 -54 137 C-55.23556641 136.04867187 -55.23556641 136.04867187 -56.49609375 135.078125 C-69.26888017 124.47731006 -77.62764502 107.23593746 -80 91 C-81.87891739 65.134384 -76.08335329 45.05488674 -59.43359375 25.125 C-51.24838126 16.26281505 -40.20894925 9.24686897 -29 5 C-28.23171875 4.70609375 -27.4634375 4.4121875 -26.671875 4.109375 C-17.57309228 0.86435459 -9.75985884 0 0 0 Z " fill="#E12C1F" transform="translate(1741,337)"/>
<path d="M0 0 C0 51.48 0 102.96 0 156 C-22.52897014 156 -42.81152176 149.22782821 -59.109375 133.13671875 C-74.27912649 117.23081801 -80.42241515 96.92847969 -80.36889648 75.28125 C-79.94179326 57.82362183 -73.37033719 42.22365207 -62 29 C-60.83791016 27.54207031 -60.83791016 27.54207031 -59.65234375 26.0546875 C-45.60594615 9.2433341 -21.35954182 0 0 0 Z " fill="#E12A1D" transform="translate(1447,337)"/>
<path d="M0 0 C15.25145349 0 15.25145349 0 21.9375 2 C22.69619385 2.22075195 23.4548877 2.44150391 24.23657227 2.66894531 C36.46077494 6.46182272 46.52043511 13.48343852 56 22 C56.72960938 22.64710938 57.45921875 23.29421875 58.2109375 23.9609375 C71.77916954 36.69740052 79.61305067 55.17723551 80.23828125 73.57421875 C80.43845145 84.76828205 80.50359987 94.58542529 76 105 C75.71125 105.77601563 75.4225 106.55203125 75.125 107.3515625 C66.99642109 127.89073958 50.64140354 141.23908619 31 150 C20.13697591 154.64748509 12.33439086 155 0 155 C0 103.85 0 52.7 0 0 Z " fill="#E12B1E" transform="translate(1463,338)"/>
<path d="M0 0 C30.69 0 61.38 0 93 0 C90.75014807 6.74955579 90.75014807 6.74955579 89.25097656 9.80102539 C88.91539734 10.48886108 88.57981812 11.17669678 88.23406982 11.88537598 C87.87323303 12.61542847 87.51239624 13.34548096 87.140625 14.09765625 C86.75964661 14.87629028 86.37866821 15.65492432 85.98614502 16.45715332 C84.7441348 18.99393706 83.49705468 21.52819283 82.25 24.0625 C80.95009952 26.71439411 79.65151669 29.36693069 78.35302734 32.01951599 C77.48138065 33.79996636 76.60930944 35.58020897 75.73681641 37.36024475 C71.95570382 45.07740642 68.22306992 52.81722272 64.5 60.5625 C60.28281505 69.30778346 56.05055967 78.04536453 51.75 86.75 C51.29560547 87.68013916 50.84121094 88.61027832 50.37304688 89.56860352 C49.95603516 90.40705811 49.53902344 91.2455127 49.109375 92.109375 C48.74811523 92.84124023 48.38685547 93.57310547 48.01464844 94.32714844 C47 96 47 96 45 97 C42.74711329 93.29882898 40.81982692 89.71296579 39.2734375 85.6640625 C37.57570237 81.35241707 35.74335136 77.11286891 33.8359375 72.890625 C33.55556641 72.26972992 33.27519531 71.64883484 32.98632812 71.00912476 C31.8220849 68.43598388 30.65438216 65.86442608 29.48535156 63.29345703 C28.62055232 61.38946534 27.75934966 59.48387674 26.8984375 57.578125 C26.38974121 56.45825195 25.88104492 55.33837891 25.35693359 54.18457031 C24.06812857 51.15989009 22.99106174 48.13333889 22 45 C21.34 45 20.68 45 20 45 C19.75765625 44.3709375 19.5153125 43.741875 19.265625 43.09375 C17.10135832 37.56654587 14.72784117 32.26755536 12 27 C8.29104894 19.78258172 4.89119686 12.58282086 2 5 C1.34 3.35 0.68 1.7 0 0 Z " fill="#DF2A1E" transform="translate(991,341)"/>
</svg>
