<?xml version="1.0" encoding="UTF-8"?>
<svg version="1.1" xmlns="http://www.w3.org/2000/svg" viewBox="240 10 1230 940" width="1230" height="940">
<path d="M0 0 C3.49740001 2.84612464 6.78467297 5.83991914 10 9 C10.62648438 9.61359375 11.25296875 10.2271875 11.8984375 10.859375 C28.94903904 28.9129531 31.8420339 51.37087086 31.17480469 75.09326172 C30.28385134 95.00532245 25.3992582 116.82982215 16.94726562 134.9074707 C16.04125699 136.90886245 15.28959777 138.91240236 14.5625 140.984375 C8.85791921 156.48795343 -2.81961668 175.04915445 -18.25 182.25 C-22.97013795 184.23825048 -26.94270588 184.56996338 -32 184 C-32.66902344 183.92910156 -33.33804688 183.85820312 -34.02734375 183.78515625 C-40.78299361 182.59455657 -45.81512641 178.15349552 -50.5859375 173.4296875 C-53.50958942 170.60295222 -55.53168675 169.6845247 -59.5 169.625 C-63.04521043 169.82895458 -66.51903873 170.28595666 -70 171 C-69.68844431 186.97431009 -62.54531521 200.11236259 -51.8125 211.6875 C-33.43763043 228.64571296 -8.10178141 240.32518406 16.015625 246.2421875 C18.44711929 246.85960882 20.83312615 247.53576596 23.234375 248.2578125 C35.45911474 251.91026635 47.78489939 254.86305634 60.25097656 257.55175781 C67.00917962 259.02618078 73.46494958 260.74441951 80 263 C83.89334341 263 86.88364006 261.41378739 89.85546875 258.86328125 C91.95866437 255.43930749 91.19661062 251.6113041 90.8203125 247.7421875 C91 245 91 245 92.703125 243.24609375 C94.98180915 242.00986885 97.18423368 241.05806649 99.625 240.1875 C104.37537536 238.37448692 108.50431858 236.0159514 112.7734375 233.26953125 C117.16492408 230.76561346 122.01220081 230.20457236 127 231 C132.69617634 233.44804224 135.65563214 238.02986987 138.73828125 243.20703125 C139.36283203 244.09455078 139.36283203 244.09455078 140 245 C140.66 245 141.32 245 142 245 C143.65 241.7 145.3 238.4 147 235 C150.35540759 235 152.39519058 235.44152173 154.88671875 237.7421875 C157.483037 240.7140738 159.81001442 243.71502163 162 247 C164.40765881 247.01990466 164.40765881 247.01990466 167.125 246.625 C170.770999 246.51031589 172.4181644 246.56145945 175.36328125 248.78125 C177.41491577 251.0994811 179.23671207 253.45671646 181 256 C181.45503906 256.61488281 181.91007812 257.22976563 182.37890625 257.86328125 C185 261.54377178 185 261.54377178 185 264 C195.89 263.505 195.89 263.505 207 263 C207 260.36 207 257.72 207 255 C205.78441406 255.01160156 204.56882812 255.02320313 203.31640625 255.03515625 C201.73177236 255.04453278 200.14713682 255.05363313 198.5625 255.0625 C197.76005859 255.07087891 196.95761719 255.07925781 196.13085938 255.08789062 C194.08704779 255.0965143 192.04316098 255.0522815 190 255 C185.74101979 250.74101979 187.60324024 236.5482224 187.4375 231 C187.39421865 229.63931211 187.35060161 228.27863485 187.30664062 226.91796875 C187.20113317 223.61206843 187.09901744 220.30610001 187 217 C179.83515373 216.88224234 172.67052802 216.79436988 165.50489712 216.74093914 C162.17456914 216.71524632 158.84542652 216.67773346 155.51538086 216.62280273 C139.18985475 216.360632 124.2374535 217.17679046 108.42338562 221.38011169 C105.20935167 222.20224336 101.97181538 222.86529487 98.71868896 223.51243591 C93.2914511 224.61428244 88.7652167 225.77411329 84.3125 229.25 C79.6059684 232.85072514 75.14899724 232.72678243 69.37109375 232.453125 C60.233736 231.22492859 54.39554961 226.39554961 48.0625 220.0625 C46.4506827 216.93367819 46.62347911 214.45144149 47 211 C48.60548415 208.26123293 50.09716333 207.96742764 53.12719727 206.95166016 C57.10541317 205.97409692 60.83314339 205.65448612 64.90234375 205.5859375 C65.6249086 205.56657135 66.34747345 205.5472052 67.0919342 205.5272522 C69.37367375 205.46802395 71.65546533 205.42130145 73.9375 205.375 C75.4954633 205.33676777 77.05340666 205.29771308 78.61132812 205.2578125 C82.40738781 205.16237025 86.20354622 205.07813332 90 205 C91.32229189 202.35541621 91.09677194 200.32238699 91.0625 197.375 C91.04896484 195.87066406 91.04896484 195.87066406 91.03515625 194.3359375 C91.02355469 193.56507813 91.01195312 192.79421875 91 192 C84.47104657 192.3159171 80.05781398 193.64070587 74.359375 196.84375 C67.68316753 200.11553379 59.34409534 199.91836959 52.3125 197.875 C44.42720973 194.84860338 39.89567526 189.51052352 36.09765625 182.06640625 C33.36427645 174.43045202 34.04245683 164.57008458 37 157 C40.1845511 151.64034042 45.12736566 147.95754478 51 146 C61.533787 144.96881143 68.98009283 146.05939648 78 152 C78.82628906 152.721875 79.65257812 153.44375 80.50390625 154.1875 C83.4147867 156.30119097 84.77509355 156.43866168 88.3125 156.25 C89.19550781 156.21390625 90.07851563 156.1778125 90.98828125 156.140625 C91.65214844 156.09421875 92.31601562 156.0478125 93 156 C93.4125 154.783125 93.825 153.56625 94.25 152.3125 C95.85054554 148.03426454 97.75734865 144.12132568 102 142 C104.31082534 141.90264181 106.62462958 141.87022627 108.9375 141.875 C110.18402344 141.87242187 111.43054688 141.86984375 112.71484375 141.8671875 C116 142 116 142 119 143 C119 143.66 119 144.32 119 145 C120.155 145.20625 121.31 145.4125 122.5 145.625 C127.80732094 146.79327819 132.78239324 148.72754854 137.83618164 150.68164062 C142.16112976 152.34309984 146.49058965 153.81125861 150.9375 155.125 C155.40822307 156.45576874 159.55783486 158.03756985 163.78125 160.00390625 C169.89180588 162.74720158 176.30375793 164.77981578 182.66333008 166.8581543 C188.25670546 168.68827052 193.70607135 170.62576046 199.05078125 173.10546875 C203.99372657 175.37387452 209.13419207 177.05006357 214.29663086 178.73583984 C219.46235981 180.42611336 224.56431376 182.16422024 229.5625 184.3125 C242.66416677 189.92497076 256.24215635 194.54006641 269.80859375 198.89453125 C273.28705021 200.0994311 276.61860841 201.5469984 280 203 C281.88780285 203.6488524 283.7836388 204.2748987 285.6875 204.875 C291.94300992 206.9236795 297.96233667 209.38592789 304 212 C304.75796875 212.31710938 305.5159375 212.63421875 306.296875 212.9609375 C333.01160553 224.36832243 355.11101217 243.41502738 368.203125 269.38671875 C369.33782679 273.10787316 369.32920517 276.63108205 369.3125 280.5 C369.32861328 281.24636719 369.34472656 281.99273437 369.36132812 282.76171875 C369.36538085 287.34130059 368.97954402 290.31289542 366 294 C362.34747729 297.48160744 358.79493804 298.97849541 354.0625 300.625 C320.59163339 313.19257345 300.88894053 351.08923344 286.76367188 381.67724609 C282.63194423 390.92819128 278.94289457 400.3000646 276 410 C276.93199219 409.3709375 277.86398437 408.741875 278.82421875 408.09375 C318.57699026 381.35546633 358.80195474 365.65833644 407.25 365.9375 C408.78515478 365.94252957 410.32031116 365.94708988 411.85546875 365.95117188 C415.5703467 365.96205161 419.28516259 365.97923423 423 366 C423 366.66 423 367.32 423 368 C420.61351207 369.73050057 418.2288835 371.34982323 415.75 372.9375 C414.38997594 373.82061581 413.03058318 374.70470473 411.671875 375.58984375 C410.76066895 376.17560181 410.76066895 376.17560181 409.83105469 376.77319336 C407.83110466 378.11315988 405.91436536 379.54099595 404 381 C405.13260254 381.07516846 405.13260254 381.07516846 406.28808594 381.15185547 C409.77583027 381.38682266 413.26288582 381.63086557 416.75 381.875 C417.93722656 381.95363281 419.12445312 382.03226562 420.34765625 382.11328125 C431.33747344 382.89397865 441.62460852 384.23597818 452 388 C453.71695624 388.56666211 455.43579877 389.12763312 457.15625 389.68359375 C458.9375119 390.26819292 460.71876179 390.85282865 462.5 391.4375 C463.38558594 391.72431641 464.27117187 392.01113281 465.18359375 392.30664062 C482.74318396 398.09537484 498.84968309 407.12551861 513 419 C513.59329102 419.49322754 514.18658203 419.98645508 514.79785156 420.49462891 C531.35940359 434.3045887 544.12935429 449.34690806 555 468 C555.36754395 468.6305127 555.73508789 469.26102539 556.11376953 469.91064453 C561.48223451 479.24890327 565.54459718 488.80902984 569 499 C569.22816406 499.6614502 569.45632813 500.32290039 569.69140625 501.00439453 C584.7994984 545.19556406 580.38031237 594.31564927 560 636 C559.67773438 636.66370605 559.35546875 637.32741211 559.0234375 638.01123047 C554.25802881 647.69944194 548.54512402 656.42654865 542 665 C541.31550781 665.91007813 540.63101562 666.82015625 539.92578125 667.7578125 C513.13787136 701.94428797 473.828393 724.06395705 430.86572266 730.31030273 C409.36118034 732.84305994 385.95433301 732.51144783 365 727 C364.14567383 726.78037598 363.29134766 726.56075195 362.41113281 726.33447266 C350.80407525 723.28032511 339.78132174 719.26511226 329 714 C328.30277832 713.66097656 327.60555664 713.32195313 326.88720703 712.97265625 C316.54792204 707.87881496 307.12702576 702.02958152 298 695 C297.06929687 694.29359375 296.13859375 693.5871875 295.1796875 692.859375 C268.43534827 671.80697969 247.66214497 642.30622126 237 610 C236.77328613 609.31969727 236.54657227 608.63939453 236.31298828 607.93847656 C230.7991963 591.1176722 228.42055492 574.48940969 228.5625 556.8125 C228.56520905 556.01317047 228.56791809 555.21384094 228.57070923 554.39028931 C228.66897491 535.16823169 231.43954106 517.10378844 238 499 C238.42925781 497.79730469 238.85851563 496.59460938 239.30078125 495.35546875 C243.65877696 483.82826319 249.1527758 472.2708363 256 462 C255.319375 461.7525 254.63875 461.505 253.9375 461.25 C250.43134917 459.75802092 247.28379632 457.93164489 244 456 C244 455.34 244 454.68 244 454 C243.01 454 242.02 454 241 454 C240.75507812 454.6703125 240.51015625 455.340625 240.2578125 456.03125 C239.02413081 458.94304529 237.5698094 461.65762879 236.0300293 464.41699219 C230.22839147 474.87980639 225.96087052 485.72950131 222 497 C221.58878906 498.14984375 221.17757812 499.2996875 220.75390625 500.484375 C219.70540455 503.63395989 218.82858032 506.78555226 218 510 C217.81953125 510.64018066 217.6390625 511.28036133 217.453125 511.93994141 C204.662082 558.6423729 217.04246913 613.24112587 240.45996094 654.41259766 C246.25448214 664.14790769 252.86720883 673.40045885 259.89282227 682.28076172 C261 684 261 684 261.125 686.8125 C259.3742746 690.21668829 256.98022062 691.62415198 253.44482422 692.97973633 C252.4910791 693.26099365 251.53733398 693.54225098 250.5546875 693.83203125 C249.48661865 694.15260498 248.4185498 694.47317871 247.31811523 694.8034668 C246.18188721 695.13644775 245.04565918 695.46942871 243.875 695.8125 C241.50859889 696.5217191 239.14271423 697.23266362 236.77734375 697.9453125 C235.03880127 698.46786621 235.03880127 698.46786621 233.26513672 699.00097656 C228.96141821 700.31777155 224.69704214 701.73524184 220.4375 703.1875 C214.3756376 705.24131236 208.28794444 707.12816612 202.1394043 708.90405273 C191.94475689 711.86275528 181.82467103 715.06846948 171.69093323 718.22801208 C167.5041343 719.533025 163.31528431 720.83122558 159.125 722.125 C117.77052849 734.8987988 76.66377836 748.31408145 35.6875 762.25 C34.23872467 762.74265854 34.23872467 762.74265854 32.76068115 763.24526978 C13.70625321 769.72875459 -5.34200174 776.23278397 -24.2401123 783.16110229 C-27.70942814 784.43292743 -31.18084667 785.69898673 -34.65234375 786.96484375 C-35.34985748 787.21925735 -36.04737122 787.47367096 -36.76602173 787.73579407 C-41.46408155 789.44699229 -46.16863934 791.13911555 -50.87890625 792.81640625 C-51.82077034 793.15182434 -51.82077034 793.15182434 -52.78166199 793.49401855 C-55.71307026 794.53707607 -58.6454416 795.57734741 -61.57885742 796.61474609 C-68.04063993 798.90877047 -74.45058855 801.31097067 -80.84423828 803.78833008 C-85.64397688 805.63121285 -90.47621704 807.3807668 -95.3125 809.125 C-97.16290106 809.79388189 -99.01316393 810.46314619 -100.86328125 811.1328125 C-101.73774902 811.44847168 -102.6122168 811.76413086 -103.51318359 812.08935547 C-105.76797425 812.91503475 -108.00696827 813.77364163 -110.24609375 814.640625 C-126.36837744 820.47887133 -143.11888675 820.15012848 -160 820 C-159.89558594 819.20335937 -159.79117187 818.40671875 -159.68359375 817.5859375 C-159.07283354 811.53050331 -159.07283354 811.53050331 -161.40625 806.18359375 C-163.85116538 804.53327587 -166.34055323 803.28329913 -169 802 C-170.46413991 801.22083184 -171.92481583 800.43513508 -173.3828125 799.64453125 C-177.56593439 797.38446214 -181.77586726 795.18238775 -186 793 C-186.09474609 793.99 -186.09474609 793.99 -186.19140625 795 C-190.11823561 826.74531526 -204.545141 855.58556372 -226 879 C-226.48807129 879.53334961 -226.97614258 880.06669922 -227.47900391 880.61621094 C-239.04209202 893.07337154 -252.06795458 903.14460022 -266.9375 911.375 C-267.76950928 911.83849854 -268.60151855 912.30199707 -269.45874023 912.77954102 C-272.26887551 914.27715802 -275.12090726 915.63900905 -278 917 C-278.58265027 917.28731963 -279.16530054 917.57463926 -279.76560688 917.87066555 C-293.45842199 924.49085035 -306.09666855 925.05090466 -321.1171875 924.96484375 C-323.50978226 924.97212229 -325.90237186 924.9813211 -328.29495239 924.99232483 C-333.28240028 925.00705968 -338.26896764 924.9963506 -343.25634766 924.9675293 C-349.59290044 924.93328151 -355.92698536 924.96660546 -362.26333427 925.01973629 C-367.19683525 925.05281579 -372.12976376 925.04757558 -377.06332779 925.0315876 C-379.39690983 925.02880095 -381.73054179 925.03782649 -384.06402206 925.05979729 C-399.73027667 925.18158845 -411.92918036 922.98657397 -426 916 C-427.66069267 915.20186386 -427.66069267 915.20186386 -429.35493469 914.38760376 C-431.78812743 913.1871823 -434.14502179 911.90900852 -436.5 910.5625 C-437.3262085 910.09859863 -438.15241699 909.63469727 -439.00366211 909.15673828 C-445.78188917 905.27796441 -451.94953972 900.9487612 -458 896 C-458.92941406 895.27167969 -459.85882813 894.54335938 -460.81640625 893.79296875 C-472.18179892 884.76704494 -481.3331956 874.55106077 -490 863 C-490.62648438 862.18015625 -491.25296875 861.3603125 -491.8984375 860.515625 C-509.31965549 836.79659581 -520.92040272 806.40287528 -521.23828125 776.828125 C-521.24802979 776.07192368 -521.25777832 775.31572235 -521.26782227 774.53660583 C-521.43095892 758.62272755 -521.46705819 743.40896489 -517 728 C-516.63372175 726.6172915 -516.26783365 725.23447959 -515.90234375 723.8515625 C-511.9562924 709.62873206 -505.49385963 696.06164289 -497 684 C-495.98486328 682.55753906 -495.98486328 682.55753906 -494.94921875 681.0859375 C-489.46679899 673.54882756 -483.43027011 666.72081471 -477 660 C-476.12472656 659.071875 -475.24945313 658.14375 -474.34765625 657.1875 C-445.67747065 627.54901151 -406.45154782 610.71291732 -365.25 609.796875 C-342.168989 609.54532378 -315.32644912 610.60131765 -295 623 C-293.14375 623.6496875 -293.14375 623.6496875 -291.25 624.3125 C-286.29346176 626.10055959 -282.30321203 629.01395704 -278 632 C-276.07004672 633.28226516 -274.13237693 634.55298528 -272.1875 635.8125 C-271.29417969 636.39644531 -270.40085937 636.98039063 -269.48046875 637.58203125 C-267.13224682 638.92440064 -265.67173977 639.74519084 -263 640 C-260.99375625 638.65388529 -260.99375625 638.65388529 -259.1796875 636.59765625 C-258.12974609 635.51000977 -258.12974609 635.51000977 -257.05859375 634.40039062 C-256.33800781 633.62888672 -255.61742187 632.85738281 -254.875 632.0625 C-253.43924871 630.54924355 -251.999353 629.03990488 -250.5546875 627.53515625 C-249.92030762 626.858479 -249.28592773 626.18180176 -248.63232422 625.48461914 C-247 624 -247 624 -245 624 C-250.89280385 611.93571783 -257.1681805 601.13870868 -266 591 C-266.58007812 590.30777344 -267.16015625 589.61554687 -267.7578125 588.90234375 C-276.47869878 579.28307471 -289.13051363 573.59463988 -301 569 C-301.84175781 568.64421875 -302.68351562 568.2884375 -303.55078125 567.921875 C-313.28947249 564.00775986 -323.76290385 562.153882 -334 560 C-334.72380859 559.84644043 -335.44761719 559.69288086 -336.19335938 559.53466797 C-360.51188657 553.59775864 -360.51188657 553.59775864 -385 554 C-387.67571151 556.71983714 -387.67571151 556.71983714 -389 560 C-392.8479291 562.56528607 -395.68703219 562.09726497 -400.109375 561.80078125 C-400.97834412 561.74972733 -401.84731323 561.6986734 -402.74261475 561.64607239 C-414.61415845 560.90316569 -426.46279354 559.81365913 -438.31240845 558.78618813 C-473.73835251 555.71868972 -509.1682928 553.45719888 -544.67906189 551.65151978 C-551.79789245 551.28727029 -558.91394993 550.89327991 -566.02856445 550.45385742 C-567.14781594 550.38481736 -567.14781594 550.38481736 -568.28967857 550.31438255 C-571.85633004 550.09339047 -575.42269295 549.8685665 -578.98876953 549.63848877 C-587.11298419 549.12685711 -595.2422679 548.6515727 -603.38598633 548.87200928 C-606.3495614 548.81370273 -608.47367993 548.42618775 -610.79785156 546.54418945 C-613.80743252 543.2626531 -615.36342845 541.11364159 -615.375 536.5625 C-615.25125 535.386875 -615.1275 534.21125 -615 533 C-616.05960938 532.95101562 -617.11921875 532.90203125 -618.2109375 532.8515625 C-619.59898497 532.77653291 -620.98700451 532.70098515 -622.375 532.625 C-623.07367187 532.5940625 -623.77234375 532.563125 -624.4921875 532.53125 C-629.7734375 532.2265625 -629.7734375 532.2265625 -632 530 C-632.19852102 527.29077199 -632.27839477 524.70696821 -632.25 522 C-632.25773437 521.26265625 -632.26546875 520.5253125 -632.2734375 519.765625 C-632.2533196 514.2533196 -632.2533196 514.2533196 -630 512 C-626.89977395 510.92840012 -624.01015671 510.8946032 -620.75 510.9375 C-619.85796875 510.94652344 -618.9659375 510.95554687 -618.046875 510.96484375 C-617.03367187 510.98224609 -617.03367187 510.98224609 -616 511 C-615.78601563 510.43410156 -615.57203125 509.86820313 -615.3515625 509.28515625 C-612.97949882 505.27458615 -608.99700557 502.91159936 -605.3359375 500.12109375 C-604.56507813 499.42113281 -603.79421875 498.72117187 -603 498 C-603 497.01 -603 496.02 -603 495 C-605.18181886 493.35018628 -607.29951309 491.91775158 -609.625 490.5 C-610.24246094 490.10941406 -610.85992188 489.71882813 -611.49609375 489.31640625 C-613.31389721 488.17980072 -615.14997024 487.08320732 -617 486 C-617.88429688 485.48179687 -618.76859375 484.96359375 -619.6796875 484.4296875 C-625.82020425 481.78565323 -632.40448779 480.3979834 -638.87890625 478.78125 C-645.11951201 477.12998125 -649.45471707 475.65731455 -654 471 C-653.5053232 466.87298208 -652.62936567 465.08399072 -649.375 462.5 C-637.9253543 454.23977047 -623.15582804 452.70305467 -609.58300781 450.44091797 C-606.02169452 449.83300381 -602.4825152 449.13422906 -598.9375 448.4375 C-591.22538081 446.98415231 -583.4780003 445.89132363 -575.70703125 444.8046875 C-557.91579547 442.31102061 -540.21106171 439.38733664 -522.52880859 436.22265625 C-512.66431707 434.45834052 -502.79010461 432.77301761 -492.89208984 431.20507812 C-491.98797363 431.05876953 -491.08385742 430.91246094 -490.15234375 430.76171875 C-489.36851318 430.63756592 -488.58468262 430.51341309 -487.77709961 430.38549805 C-485.98395923 430.1643365 -485.98395923 430.1643365 -485 429 C-483.36086721 428.67276841 -481.71301361 428.38889699 -480.0625 428.125 C-466.16480656 425.61594139 -452.90758507 420.17366212 -442 411 C-439.70163326 409.85081663 -438.47226998 409.89302463 -435.92089844 409.93066406 C-435.07952332 409.94107727 -434.23814819 409.95149048 -433.37127686 409.96221924 C-432.00413544 409.98865509 -432.00413544 409.98865509 -430.609375 410.015625 C-429.672005 410.03212097 -428.73463501 410.04861694 -427.76885986 410.06561279 C-425.78155883 410.1031558 -423.79431274 410.14370747 -421.80712891 410.18701172 C-418.77643158 410.24945541 -415.74589726 410.29107774 -412.71484375 410.33203125 C-410.78382764 410.37110604 -408.85283633 410.41143055 -406.921875 410.453125 C-406.01854431 410.46265198 -405.11521362 410.47217896 -404.18450928 410.48199463 C-399.07370134 410.61977272 -395.41391243 411.1421084 -391 414 C-386.87418211 419.40624413 -386.49135485 425.41438391 -387 432 C-387.90384083 435.61536332 -388.56079354 436.6862811 -391.625 438.875 C-394.38106894 440.8716964 -394.38106894 440.8716964 -394.4375 444.5625 C-394.24449116 448.11557574 -394.24449116 448.11557574 -392 451 C-386.11035861 453.11976317 -381.00961674 451.71992248 -375.5 449.2578125 C-372.20405903 447.5995422 -368.98616923 445.83465747 -365.8125 443.953125 C-364 443 -364 443 -362 443 C-362.70576172 441.71029297 -362.70576172 441.71029297 -363.42578125 440.39453125 C-364.05547364 439.20093524 -364.68433405 438.00690005 -365.3125 436.8125 C-365.92738281 435.66394531 -366.54226563 434.51539063 -367.17578125 433.33203125 C-371.59978464 423.75098419 -372.55897599 413.42419735 -372.5 403 C-372.49572998 401.8351709 -372.49145996 400.6703418 -372.48706055 399.47021484 C-372.27462818 388.4882871 -370.29333065 378.44348058 -367 368 C-366.65066406 366.85144531 -366.30132813 365.70289063 -365.94140625 364.51953125 C-359.31944827 345.38134501 -346.81070202 327.94242192 -336 311 C-335.33774414 309.96117676 -334.67548828 308.92235352 -333.99316406 307.85205078 C-330.653706 302.61807693 -327.3063574 297.38922102 -323.953125 292.1640625 C-320.01924576 286.03367007 -316.09987775 279.89413321 -312.1875 273.75 C-311.60669678 272.83911621 -311.02589355 271.92823242 -310.42749023 270.98974609 C-309.38121495 269.34602341 -308.33914013 267.69961474 -307.30249023 266.04980469 C-306.2718995 264.42790407 -305.19803629 262.83350733 -304.109375 261.25 C-302.69281328 258.37697341 -302.83145199 256.42585994 -303.0625 253.25 C-303.24741823 247.27344266 -301.91974642 243.16169456 -299 238 C-298.34 238 -297.68 238 -297 238 C-296.92007812 237.34515625 -296.84015625 236.6903125 -296.7578125 236.015625 C-295.72583632 231.90899815 -293.86612098 228.47084871 -291.875 224.75 C-291.2243457 223.5266394 -291.2243457 223.5266394 -290.56054688 222.27856445 C-282.08026662 206.5539784 -273.04459405 190.93396628 -262.25537109 176.66748047 C-260.86720117 174.82360638 -259.50545682 172.96172014 -258.14453125 171.09765625 C-234.01836699 138.21768125 -204.75122121 107.39327575 -165 95 C-163.9584375 94.62359375 -162.916875 94.2471875 -161.84375 93.859375 C-156.24339349 92.60726277 -150.78004347 92.79048827 -145.0625 92.875 C-143.90169922 92.88402344 -142.74089844 92.89304687 -141.54492188 92.90234375 C-138.69639892 92.92578838 -135.84830922 92.95860478 -133 93 C-133.23130615 91.76672974 -133.23130615 91.76672974 -133.46728516 90.50854492 C-138.15871689 64.56376639 -131.11865365 40.33872552 -116.45703125 18.56958008 C-106.15521009 3.80429679 -93.19241103 -7.13592182 -76 -13 C-75.06414063 -13.3196875 -74.12828125 -13.639375 -73.1640625 -13.96875 C-48.55485795 -20.94458751 -20.40973672 -14.93322378 0 0 Z " fill="#161718" transform="translate(897,25)"/>
<path d="M0 0 C21.80693068 -0.83927755 39.20960463 2.47331771 58.27050781 13.12353516 C59.26050781 13.61853516 59.26050781 13.61853516 60.27050781 14.12353516 C58.75998758 17.80024099 56.62164631 19.84227978 53.64550781 22.43603516 C52.30939453 23.60585938 52.30939453 23.60585938 50.94628906 24.79931641 C50.06328125 25.56630859 49.18027344 26.33330078 48.27050781 27.12353516 C47.5009375 27.81833984 46.73136719 28.51314453 45.93847656 29.22900391 C45.24367188 29.85419922 44.54886719 30.47939453 43.83300781 31.12353516 C43.21554687 31.68041016 42.59808594 32.23728516 41.96191406 32.81103516 C40.27050781 34.12353516 40.27050781 34.12353516 37.27050781 35.12353516 C34.44930681 34.41026132 31.72481735 33.63240974 28.95800781 32.74853516 C8.79389693 26.4157169 -11.87998726 28.4715264 -30.72949219 38.12353516 C-50.74608119 49.42349131 -61.84579944 66.49491817 -68.28735352 87.98461914 C-69.275888 92.76681165 -68.95773043 97.75978139 -68.97949219 102.62353516 C-69.00011719 103.74501953 -69.02074219 104.86650391 -69.04199219 106.02197266 C-69.09346846 117.16658572 -66.8491441 127.21667626 -61.72949219 137.12353516 C-61.04113281 138.49251953 -61.04113281 138.49251953 -60.33886719 139.88916016 C-50.84660674 157.49131303 -35.09936364 170.93951601 -16.10449219 177.34619141 C6.85293263 184.13127777 29.69952307 182.49061048 50.81738281 171.12353516 C66.93880816 161.78623903 78.35554329 148.86842872 84.27050781 131.12353516 C91.53018421 129.76144018 98.80391424 128.77969149 106.14550781 127.99853516 C106.9535083 127.91104004 107.76150879 127.82354492 108.59399414 127.73339844 C112.84060052 127.2960213 116.99438141 127.02728794 121.27050781 127.12353516 C121.17956216 146.0402302 109.71920623 162.98956358 98.27050781 177.12353516 C97.449375 178.14962891 96.62824219 179.17572266 95.78222656 180.23291016 C81.73568131 196.39845213 59.95934062 206.77931039 39.27050781 211.12353516 C38.06104492 211.3884375 38.06104492 211.3884375 36.82714844 211.65869141 C29.68245238 213.11342374 22.7995227 213.43652663 15.52050781 213.37353516 C14.37453125 213.36604248 13.22855469 213.3585498 12.04785156 213.35083008 C-20.62876874 212.93682137 -47.74641241 201.55679069 -70.72949219 178.12353516 C-92.44897341 154.24223931 -101.34554992 125.70413611 -99.97265625 93.78173828 C-99.6567464 90.32829813 -98.82315948 87.40875969 -97.72949219 84.12353516 C-97.50007691 82.5431188 -97.29077659 80.95961376 -97.10449219 79.37353516 C-92.7355574 54.90750033 -75.87012598 32.79574015 -55.87084961 18.75830078 C-38.56525998 7.23166564 -20.72502211 0.9380019 0 0 Z " fill="#F9F9F9" transform="translate(529.7294921875,689.87646484375)"/>
<path d="M0 0 C4.29183971 -0.05432708 8.58298023 -0.09383388 12.875 -0.125 C14.07898437 -0.14175781 15.28296875 -0.15851563 16.5234375 -0.17578125 C23.63346244 -0.21442269 30.10803111 0.25740731 37 2 C38.10480713 2.25765137 38.10480713 2.25765137 39.23193359 2.52050781 C68.99285383 9.62066047 96.46600261 29.05385988 113 55 C115.95494237 60.19634477 118.5012317 65.57369748 121 71 C121.72703125 72.51207031 121.72703125 72.51207031 122.46875 74.0546875 C127.61537067 85.38352935 130.50820309 98.5616366 131 111 C131.0515625 111.89589844 131.103125 112.79179688 131.15625 113.71484375 C132.16862298 146.49041907 119.52380947 177.08536872 98.25 201.6875 C85.65159349 215.06358593 69.25031879 224.86588465 52 231 C51.31856934 231.24411621 50.63713867 231.48823242 49.93505859 231.73974609 C38.81018635 235.5313505 27.88058577 236.47500236 16.1875 236.5 C14.91334229 236.50628418 13.63918457 236.51256836 12.32641602 236.51904297 C-0.44460718 236.34927909 -12.56146173 233.87055024 -24.625 229.75 C-25.96473877 229.29548462 -25.96473877 229.29548462 -27.33154297 228.83178711 C-43.50615964 223.16964738 -56.59650259 213.70020632 -69 202 C-69.93972656 201.13955078 -69.93972656 201.13955078 -70.8984375 200.26171875 C-76.02780938 195.39925989 -80.00254174 189.80583223 -84 184 C-84.5878125 183.18015625 -85.175625 182.3603125 -85.78125 181.515625 C-102.3691899 157.23691297 -107.82852587 125.32239691 -103.28125 96.515625 C-102.44574481 92.26178102 -101.31200874 88.12937486 -100 84 C-99.61457031 82.74316406 -99.22914062 81.48632812 -98.83203125 80.19140625 C-96.32785186 72.6626598 -93.04800422 65.81622704 -89 59 C-84.87792878 59 -84.37056219 59.0981942 -81.328125 61.40625 C-80.66425781 61.90253906 -80.00039062 62.39882813 -79.31640625 62.91015625 C-78.63449219 63.43480469 -77.95257812 63.95945312 -77.25 64.5 C-76.55261719 65.02464844 -75.85523438 65.54929687 -75.13671875 66.08984375 C-73.41804587 67.38473427 -71.70815415 68.69126498 -70 70 C-71.0145288 72.56889861 -72.05228664 75.12093509 -73.1484375 77.65625 C-73.55320312 78.5946875 -73.95796875 79.533125 -74.375 80.5 C-74.97441406 81.87671875 -74.97441406 81.87671875 -75.5859375 83.28125 C-79.58239729 93.79127685 -81.67241314 102.8951956 -81.5 114.1875 C-81.48404785 116.08399292 -81.48404785 116.08399292 -81.46777344 118.01879883 C-81.26391978 128.12568253 -79.99931345 137.36234595 -77 147 C-76.73445313 147.90621094 -76.46890625 148.81242188 -76.1953125 149.74609375 C-71.89752413 162.20968003 -63.15414407 173.7426137 -54 183 C-53.41734375 183.63164063 -52.8346875 184.26328125 -52.234375 184.9140625 C-40.71749792 197.13056296 -24.15379929 205.07013846 -8 209 C-7.08605469 209.22429687 -6.17210937 209.44859375 -5.23046875 209.6796875 C20.23062733 214.87873649 46.17841441 208.57604876 68 195 C71.53958688 192.53330549 74.79539977 189.88528063 78 187 C79.02480469 186.11441406 79.02480469 186.11441406 80.0703125 185.2109375 C96.33254983 170.22416976 105.94625249 146.04851262 107.14599609 124.36083984 C107.65296737 111.87907857 107.22493527 100.85752325 103 89 C102.63777344 87.8965625 102.27554687 86.793125 101.90234375 85.65625 C94.9321028 65.80878424 81.36489196 49.40782037 63.48046875 38.54296875 C61 37 61 37 58.90625 35.39453125 C54.16075123 31.92292662 47.64844578 30.51937932 42.078125 28.74609375 C40 28 40 28 38.13671875 26.9765625 C27.48732023 22.10937853 11.40011187 23.44706321 0 23 C0 15.41 0 7.82 0 0 Z " fill="#F8F7F8" transform="translate(1287,464)"/>
<path d="M0 0 C10.1563186 -0.51599636 16.62066788 3.01549295 24.4375 9.4375 C32.15518273 16.66592268 33.93245278 25.09664652 34.375 35.4375 C34.1656454 44.70144121 30.53570383 53.40645808 24 60 C21.14360388 62.29345674 18.18066432 64.18972828 15 66 C13.948125 66.61875 12.89625 67.2375 11.8125 67.875 C2.87459144 70.51241564 -7.52944475 70.04178778 -16 66 C-25.54085122 60.13586705 -31.08199261 52.6919244 -34.3125 42.03125 C-35.82845435 35.34726947 -35.68326814 29.37276183 -33 23 C-26.75242421 26.30375921 -20.96824538 29.97849657 -15.25 34.125 C-6.52606141 41.27589409 -6.52606141 41.27589409 4 43 C6.30275556 41.1329009 7.67823871 39.64352259 9 37 C9.36810264 31.66251167 8.84307351 28.36327866 6.85986328 23.31884766 C5.24437657 18.96226255 4.06171908 14.47251276 2.8125 10 C2.53986328 9.03449219 2.26722656 8.06898438 1.98632812 7.07421875 C1.32116833 4.7169858 0.65913011 2.35892466 0 0 Z " fill="#F8F8F8" transform="translate(1300,547)"/>
<path d="M0 0 C5.24164136 3.72962943 8.94622522 7.83867567 11 14 C11.06970052 16.39490986 11.08448003 18.79167691 11.0625 21.1875 C11.05347656 22.45980469 11.04445313 23.73210938 11.03515625 25.04296875 C11.02355469 26.01878906 11.01195312 26.99460937 11 28 C10.34 28 9.68 28 9 28 C8.9071875 29.051875 8.9071875 29.051875 8.8125 30.125 C7.33288425 35.36056341 3.99543887 38.60714274 -0.5625 41.3125 C-6.7743179 44.36193788 -12.80441641 45.06168731 -19.5625 43.3515625 C-26.34409245 40.93251885 -31.3828885 37.41170224 -35.09375 31.15625 C-37.92766012 24.75371232 -38.08061737 17.44446788 -36 10.8125 C-27.21568585 -1.54044177 -14.38560763 -7.75086618 0 0 Z " fill="#F6F6F6" transform="translate(546,775)"/>
</svg>
