<?xml version="1.0"?>
<svg xmlns="http://www.w3.org/2000/svg" width="700" height="160" viewBox="220 90 170 80">
<style type="text/css">
	.st0{fill:#FFFFFF;}
	.st1{fill:#EE3124;}
	.st2{fill-rule:evenodd;clip-rule:evenodd;fill:#EE3124;}
</style>
<path class="st0" d="M136.7,128.6c29.5-15.4,60.4-14.1,60.4-14.1v-2.4h-60.4V128.6z"/>
<rect x="136.7" y="102.3" class="st1" width="60.4" height="9.8"/>
<path class="st2" d="M197,114.5c0,0-30.9-1.3-60.4,14.1v34.1H197V114.5z"/>
<path class="st2" d="M273.1,136.2c0.9-5.3,4.4-9,9.8-9c5.1,0,8.7,4.1,9,9H273.1z M306.9,144.3c0.7-14.9-7.5-26.7-24.1-26.7 c-13.6,0-24.9,9.6-24.9,23.1c0,14.7,10.2,23.3,25.2,23.3c10.3,0,20.2-4.4,22.9-14.5H292c-1.4,3.2-5,4.8-8.6,4.8c-6.4,0-10-4-10.3-10 H306.9z"/>
<path class="st2" d="M310.2,162.7h15.2v-23.9c0-4.8,2.5-9.4,8.2-9.4c8.3,0,7.6,6.1,7.6,12.1v21.2h15.2v-28.2c0-6.3-1.3-17-16.8-17 c-5.6,0-11.8,2.8-14.6,7.3H325v-6h-14.8V162.7z"/>
<path class="st2" d="M374.8,136.2c0.9-5.3,4.4-9,9.8-9c5.1,0,8.7,4.1,9,9H374.8z M408.6,144.3c0.7-14.9-7.5-26.7-24.1-26.7 c-13.6,0-24.9,9.6-24.9,23.1c0,14.7,10.2,23.3,25.2,23.3c10.3,0,20.2-4.4,22.9-14.5h-14.1c-1.4,3.2-5,4.8-8.6,4.8 c-6.4,0-10-4-10.3-10H408.6z"/>
<rect x="412.1" y="102.3" class="st2" width="14.7" height="60.4"/>
<rect x="431.8" y="102.3" class="st2" width="14.7" height="60.4"/>
<rect x="451.3" y="118.8" class="st2" width="14.7" height="43.9"/>
<circle class="st1" cx="458.6" cy="109.3" r="7.5"/>
<path class="st2" d="M219.6,136.2h12.3c4.6,0,8.3,1.8,8.3,7.1c0,5-3.4,6.8-8.3,6.8h-12.3V136.2z M219.6,114.5h11.9 c3.2,0,6.3,1.4,6.3,5.8c0,4.3-3.6,5.8-6.3,5.8h-11.9V114.5z M204.2,162.7h28.4c12.7,0,23-4.4,23-18.8c0-6.8-3.9-12.4-10.2-14.3 c4.6-2.4,7.8-6.8,7.8-12.2c0-12.6-11.2-15.3-21.4-15.1h-27.7V162.7z"/>
<path class="st1" d="M476.8,159c0,2.2-1.8,3.9-4,3.9c-2.2,0-4-1.7-4-3.9s1.8-3.9,4.1-3.9C475,155.1,476.8,156.8,476.8,159z M469.7,159c0,1.7,1.3,3.1,3.1,3.1c1.7,0,3-1.4,3-3.1c0-1.7-1.3-3.2-3-3.2C471,155.9,469.7,157.3,469.7,159z M472.1,161h-0.9v-3.9 c0.4,0,0.9-0.1,1.5-0.1c0.7,0,1.1,0.1,1.3,0.3c0.2,0.2,0.4,0.5,0.4,0.8c0,0.5-0.4,0.8-0.8,0.9v0c0.4,0.1,0.6,0.4,0.7,1 c0.1,0.6,0.2,0.8,0.3,1h-1c-0.1-0.1-0.2-0.5-0.3-1c-0.1-0.4-0.3-0.6-0.8-0.6h-0.4V161z M472.2,158.8h0.4c0.5,0,0.9-0.2,0.9-0.6 c0-0.4-0.3-0.6-0.8-0.6c-0.2,0-0.4,0-0.5,0V158.8z"/>
</svg>
